<svg width="109" height="47" viewBox="0 0 109 47" fill="none" xmlns="http://www.w3.org/2000/svg">
<g clip-path="url(#clip0_1_3)">
<path d="M0 34.2364H6.65469V32.6603H1.40099V30.3837H6.65469V28.8076H0V34.2364Z" fill="black"/>
<path d="M0 26.3559H6.65469V24.8674H1.40099V22.5032H6.65469V21.0146H0V26.3559Z" fill="black"/>
<path d="M0 12.9589V14.7977L2.88954 16.9868H0V18.5629H6.65469V16.9868H3.50247L6.65469 14.7102V12.7838L3.06466 15.4982L0 12.9589Z" fill="black"/>
<path d="M17.512 12.7841C14.7976 12.7841 12.0832 12.7841 9.28125 12.7841C9.28125 19.9641 9.28125 27.0566 9.28125 34.2367C10.8574 34.2367 12.3459 34.2367 13.922 34.2367C13.922 31.9601 13.922 29.771 13.922 27.4944C15.323 27.4944 16.6364 27.4944 18.0374 27.4944C21.5399 27.4069 24.517 24.8676 25.0424 21.2775C25.305 19.0009 24.8672 16.8995 23.2036 15.1482C21.715 13.4846 19.7011 12.7841 17.512 12.7841ZM18.0374 23.2039C16.724 23.2915 15.323 23.2039 14.0096 23.2039C14.0096 21.19 14.0096 19.1761 14.0096 17.1621C14.0971 17.1621 14.1847 17.1621 14.3598 17.1621C15.5857 17.1621 16.8116 17.1621 18.0374 17.2497C19.526 17.4248 20.4891 18.6507 20.4891 20.2268C20.4016 21.7154 19.4384 23.0288 18.0374 23.2039Z" fill="black"/>
<path d="M35.1996 8.84362C30.9966 11.0327 28.72 14.7103 27.5817 19.351C29.7707 19.351 31.8722 19.351 33.9737 19.351C34.1488 19.351 34.4115 19.0883 34.4991 18.9132C36.4254 14.6227 40.716 12.5212 45.2692 13.8346C48.5089 14.7103 50.5229 16.8993 51.5736 20.2266C47.6333 20.2266 43.6931 20.2266 39.7528 20.2266C39.7528 22.2406 39.7528 24.2545 39.7528 26.2684C41.7667 26.2684 43.6931 26.2684 45.6194 26.2684C47.5458 26.2684 49.5597 26.2684 51.486 26.2684C50.3477 31.0843 45.094 34.0614 40.1906 32.6604C37.3011 31.8723 35.3747 29.946 34.324 27.144C34.2364 26.9689 34.0613 26.7062 33.8861 26.7062C31.7847 26.7062 29.6832 26.7062 27.4941 26.7062C28.1071 30.1211 29.5081 33.0106 31.9598 35.2872C34.9369 38.0892 38.5269 39.4026 42.5548 39.4026C46.7577 39.4026 50.6104 38.1768 53.6751 35.1997C58.3159 30.734 59.6293 25.2177 58.1407 19.0883C55.6014 8.14312 43.6931 4.29041 35.1996 8.84362Z" fill="black"/>
<path d="M85.6352 0C72.7636 0 62.3438 10.5074 62.3438 23.379C62.3438 28.1073 63.7447 32.3978 66.1089 36.0754H72.9387V29.2456C72.1507 27.4068 71.6253 25.4805 71.6253 23.379C71.6253 15.586 77.8422 9.3691 85.6352 9.3691C87.7366 9.3691 89.7506 9.80691 91.5018 10.6825H98.3316V3.76515C94.654 1.40099 90.2759 0 85.6352 0Z" fill="black"/>
<path d="M98.2445 10.683V17.5128C99.0325 19.3516 99.5579 21.2779 99.5579 23.3794C99.5579 31.1724 93.341 37.3893 85.548 37.3893C83.4465 37.3893 81.4326 36.9515 79.6814 36.0759H72.8516V42.9932C76.5292 45.3574 80.8197 46.7584 85.548 46.7584C98.4196 46.7584 108.839 36.251 108.839 23.3794C108.839 18.6511 107.438 14.3606 105.074 10.683H98.2445Z" fill="black"/>
</g>
<defs>
<clipPath id="clip0_1_3">
<rect width="109" height="47" fill="white"/>
</clipPath>
</defs>
</svg>
