<?xml version="1.0" encoding="UTF-8"?> <svg xmlns="http://www.w3.org/2000/svg" width="203" height="47" viewBox="0 0 203 47" fill="none"> <path d="M0 34.2364H6.65469V32.6603H1.40099V30.3837H6.65469V28.8076H0V34.2364Z" fill="white"></path> <path d="M0 26.3559H6.65469V24.8674H1.40099V22.5032H6.65469V21.0146H0V26.3559Z" fill="white"></path> <path d="M0 12.9589V14.7977L2.88954 16.9868H0V18.5629H6.65469V16.9868H3.50247L6.65469 14.7102V12.7838L3.06466 15.4982L0 12.9589Z" fill="white"></path> <path d="M17.512 12.7841C14.7976 12.7841 12.0832 12.7841 9.28125 12.7841C9.28125 19.9641 9.28125 27.0566 9.28125 34.2367C10.8574 34.2367 12.3459 34.2367 13.922 34.2367C13.922 31.9601 13.922 29.771 13.922 27.4944C15.323 27.4944 16.6364 27.4944 18.0374 27.4944C21.5399 27.4069 24.517 24.8676 25.0424 21.2775C25.305 19.0009 24.8672 16.8995 23.2036 15.1482C21.715 13.4846 19.7011 12.7841 17.512 12.7841ZM18.0374 23.2039C16.724 23.2915 15.323 23.2039 14.0096 23.2039C14.0096 21.19 14.0096 19.1761 14.0096 17.1621C14.0971 17.1621 14.1847 17.1621 14.3598 17.1621C15.5857 17.1621 16.8116 17.1621 18.0374 17.2497C19.526 17.4248 20.4891 18.6507 20.4891 20.2268C20.4016 21.7154 19.4384 23.0288 18.0374 23.2039Z" fill="white"></path> <path d="M35.1996 8.84362C30.9966 11.0327 28.72 14.7103 27.5817 19.351C29.7707 19.351 31.8722 19.351 33.9737 19.351C34.1488 19.351 34.4115 19.0883 34.4991 18.9132C36.4254 14.6227 40.716 12.5212 45.2692 13.8346C48.5089 14.7103 50.5229 16.8993 51.5736 20.2266C47.6333 20.2266 43.6931 20.2266 39.7528 20.2266C39.7528 22.2406 39.7528 24.2545 39.7528 26.2684C41.7667 26.2684 43.6931 26.2684 45.6194 26.2684C47.5458 26.2684 49.5597 26.2684 51.486 26.2684C50.3477 31.0843 45.094 34.0614 40.1906 32.6604C37.3011 31.8723 35.3747 29.946 34.324 27.144C34.2364 26.9689 34.0613 26.7062 33.8861 26.7062C31.7847 26.7062 29.6832 26.7062 27.4941 26.7062C28.1071 30.1211 29.5081 33.0106 31.9598 35.2872C34.9369 38.0892 38.5269 39.4026 42.5548 39.4026C46.7577 39.4026 50.6104 38.1768 53.6751 35.1997C58.3159 30.734 59.6293 25.2177 58.1407 19.0883C55.6014 8.14312 43.6931 4.29041 35.1996 8.84362Z" fill="white"></path> <path d="M85.6352 0C72.7636 0 62.3438 10.5074 62.3438 23.379C62.3438 28.1073 63.7447 32.3978 66.1089 36.0754H72.9387V29.2456C72.1507 27.4068 71.6253 25.4805 71.6253 23.379C71.6253 15.586 77.8422 9.3691 85.6352 9.3691C87.7366 9.3691 89.7506 9.80691 91.5018 10.6825H98.3316V3.76515C94.654 1.40099 90.2759 0 85.6352 0Z" fill="white"></path> <path d="M98.2445 10.683V17.5128C99.0325 19.3516 99.5579 21.2779 99.5579 23.3794C99.5579 31.1724 93.341 37.3893 85.548 37.3893C83.4465 37.3893 81.4326 36.9515 79.6814 36.0759H72.8516V42.9932C76.5292 45.3574 80.8197 46.7584 85.548 46.7584C98.4196 46.7584 108.839 36.251 108.839 23.3794C108.839 18.6511 107.438 14.3606 105.074 10.683H98.2445Z" fill="white"></path> <path d="M116.979 15.5028H115.742V8.70105C115.866 8.70105 116.113 8.70105 116.732 8.70105C117.226 8.70105 117.597 8.70105 117.721 8.70105C118.216 8.70105 118.587 8.70105 118.958 8.82472C119.329 8.94839 119.576 9.07205 119.823 9.31939C120.071 9.56673 120.194 9.81407 120.194 10.0614C120.318 10.3087 120.318 10.5561 120.318 10.9271C120.318 11.5454 120.071 12.0401 119.7 12.5348C119.205 12.9058 118.71 13.1531 117.845 13.1531C117.474 13.1531 117.103 13.1531 116.979 13.1531V15.5028V15.5028ZM117.721 9.81407C117.597 9.81407 117.35 9.81407 116.855 9.81407V11.9164C117.226 11.9164 117.474 11.9164 117.721 11.9164C118.092 11.9164 118.463 11.7928 118.587 11.6691C118.834 11.5454 118.958 11.1744 118.958 10.8034C119.081 10.1851 118.587 9.81407 117.721 9.81407Z" fill="white"></path> <path d="M121.186 12.04C121.186 11.0506 121.557 10.185 122.175 9.56662C122.793 8.94827 123.659 8.57727 124.772 8.57727C125.761 8.57727 126.627 8.94827 127.369 9.56662C127.987 10.185 128.358 11.0506 128.358 12.1637C128.358 13.153 127.987 14.0187 127.369 14.637C126.751 15.2554 125.885 15.6264 124.772 15.6264C123.783 15.6264 122.917 15.2554 122.175 14.637C121.433 14.0187 121.186 13.153 121.186 12.04ZM122.422 12.04C122.422 12.782 122.67 13.2767 123.041 13.7713C123.535 14.266 124.03 14.5133 124.648 14.5133C125.39 14.5133 125.885 14.266 126.256 13.7713C126.627 13.2767 126.874 12.782 126.874 12.04C126.874 11.298 126.627 10.8033 126.256 10.3086C125.761 9.81395 125.267 9.69028 124.648 9.69028C124.03 9.69028 123.412 9.93762 123.041 10.3086C122.546 10.8033 122.422 11.4216 122.422 12.04Z" fill="white"></path> <path d="M134.294 13.8954L134.788 14.7611C134.541 15.0084 134.294 15.1321 133.923 15.2557C133.552 15.3794 133.057 15.5031 132.686 15.5031C131.697 15.5031 130.831 15.1321 130.089 14.5137C129.471 13.8954 129.1 13.0297 129.1 11.9167C129.1 10.9273 129.347 10.0617 129.965 9.44333C130.584 8.82498 131.449 8.45398 132.562 8.45398C133.428 8.45398 134.17 8.70132 134.665 9.19599L134.17 10.0617C133.675 9.81433 133.181 9.56699 132.686 9.56699C132.068 9.56699 131.573 9.81433 131.078 10.1853C130.707 10.68 130.46 11.1747 130.46 11.9167C130.46 12.6587 130.707 13.1534 131.078 13.648C131.573 14.1427 132.068 14.2664 132.81 14.2664C133.304 14.5137 133.799 14.2664 134.294 13.8954Z" fill="white"></path> <path d="M140.475 13.8954L140.97 14.7611C140.723 15.0084 140.475 15.1321 140.104 15.2557C139.733 15.3794 139.239 15.5031 138.868 15.5031C137.878 15.5031 137.013 15.1321 136.271 14.5137C135.652 13.8954 135.281 13.0297 135.281 11.9167C135.281 10.9273 135.529 10.0617 136.147 9.44333C136.765 8.82498 137.631 8.45398 138.744 8.45398C139.61 8.45398 140.352 8.70132 140.846 9.19599L140.352 10.0617C139.857 9.81433 139.362 9.56699 138.868 9.56699C138.249 9.56699 137.755 9.81433 137.26 10.1853C136.889 10.68 136.642 11.1747 136.642 11.9167C136.642 12.6587 136.889 13.1534 137.26 13.648C137.755 14.1427 138.249 14.2664 138.991 14.2664C139.362 14.5137 139.981 14.2664 140.475 13.8954Z" fill="white"></path> <path d="M143.073 15.5028H142.084V8.70105H143.321V13.5241L146.907 8.70105H147.896V15.5028H146.66V10.6797L143.073 15.5028Z" fill="white"></path> <path d="M150.865 15.5028H149.752V8.70108H150.989V13.5241L154.575 8.70108H155.688V15.5028H154.451V10.6798L150.865 15.5028ZM150.865 6.96973H151.978C152.102 7.34073 152.349 7.58807 152.844 7.58807C153.338 7.58807 153.586 7.34073 153.586 6.96973H154.699C154.699 7.34073 154.451 7.71174 154.204 7.95907C153.833 8.20641 153.338 8.33008 152.844 8.33008C152.225 8.33008 151.854 8.20641 151.483 7.95907C151.112 7.8354 150.865 7.4644 150.865 6.96973Z" fill="white"></path> <path d="M162.243 13.8954L162.738 14.7611C162.49 15.0084 162.243 15.1321 161.872 15.2557C161.501 15.3794 161.006 15.5031 160.635 15.5031C159.646 15.5031 158.78 15.1321 158.038 14.5137C157.42 13.8954 157.049 13.0297 157.049 11.9167C157.049 10.9273 157.296 10.0617 157.915 9.44333C158.533 8.82498 159.399 8.45398 160.512 8.45398C161.377 8.45398 162.119 8.70132 162.614 9.19599L162.119 10.0617C161.625 9.81433 161.13 9.56699 160.635 9.56699C160.017 9.56699 159.522 9.81433 159.028 10.1853C158.657 10.68 158.409 11.1747 158.409 11.9167C158.409 12.6587 158.657 13.1534 159.028 13.648C159.522 14.1427 160.017 14.2664 160.759 14.2664C161.254 14.5137 161.748 14.2664 162.243 13.8954Z" fill="white"></path> <path d="M163.848 15.5028V8.70105H165.084V11.9164L167.805 8.70105H169.289L166.445 11.9164L169.413 15.5028H167.929L165.084 12.0401V15.5028H163.848Z" fill="white"></path> <path d="M171.392 15.5028H170.402V8.70105H171.639V13.5241L175.225 8.70105H176.338V15.5028H175.102V10.6797L171.392 15.5028Z" fill="white"></path> <path d="M179.185 15.5028H178.195V8.70108H179.432V13.5241L183.018 8.70108H184.008V15.5028H182.771V10.6798L179.185 15.5028ZM179.185 6.96973H180.298C180.421 7.34073 180.669 7.58807 181.163 7.58807C181.658 7.58807 181.905 7.34073 181.905 6.96973H183.018C183.018 7.34073 182.771 7.71174 182.524 7.95907C182.153 8.20641 181.658 8.33008 181.163 8.33008C180.545 8.33008 180.174 8.20641 179.803 7.95907C179.432 7.8354 179.185 7.4644 179.185 6.96973Z" fill="white"></path> <path d="M116.608 24.2836V23.1706H119.699C119.576 22.5522 119.328 22.1812 118.834 21.8102C118.339 21.5629 117.844 21.3155 117.226 21.3155C116.608 21.3155 116.113 21.4392 115.618 21.8102L115.124 20.9445C115.742 20.4499 116.484 20.2025 117.473 20.2025C118.463 20.2025 119.328 20.5735 119.947 21.1919C120.565 21.8102 120.936 22.6759 120.936 23.7889C120.936 24.9019 120.565 25.7676 119.947 26.3859C119.328 27.0043 118.463 27.3753 117.35 27.3753C116.855 27.3753 116.484 27.2516 115.989 27.1279C115.618 27.0043 115.247 26.8806 115 26.6333L115.495 25.6439C115.989 26.0149 116.608 26.2623 117.226 26.2623C117.844 26.2623 118.339 26.1386 118.834 25.7676C119.205 25.3966 119.576 25.0256 119.576 24.4072H116.608V24.2836Z" fill="white"></path> <path d="M122.297 27.1274V20.3257H123.534V23.5411L126.254 20.3257H127.738L124.894 23.5411L127.862 27.1274H126.254L123.41 23.6647V27.1274H122.297Z" fill="white"></path> <path d="M127.984 23.7884C127.984 22.799 128.355 21.9334 128.974 21.315C129.592 20.6967 130.458 20.3257 131.571 20.3257C132.56 20.3257 133.426 20.6967 134.168 21.315C134.786 21.9334 135.157 22.799 135.157 23.9121C135.157 24.9014 134.786 25.7671 134.168 26.3854C133.549 27.0038 132.684 27.3748 131.571 27.3748C130.581 27.3748 129.716 27.0038 128.974 26.3854C128.232 25.6434 127.984 24.7777 127.984 23.7884ZM129.221 23.7884C129.221 24.5304 129.468 25.0251 129.839 25.5198C130.334 26.0144 130.829 26.2618 131.447 26.2618C132.189 26.2618 132.684 26.0144 133.055 25.5198C133.426 25.0251 133.673 24.5304 133.673 23.7884C133.673 23.0464 133.426 22.5517 133.055 22.057C132.56 21.5624 132.065 21.4387 131.447 21.4387C130.829 21.4387 130.21 21.686 129.839 22.057C129.345 22.428 129.221 23.0464 129.221 23.7884Z" fill="white"></path> <path d="M140.228 27.1276V21.4388H138.249L138.126 22.6755C138.002 23.4175 138.002 24.1595 137.878 24.6542C137.755 25.1489 137.631 25.6435 137.507 26.0145C137.384 26.3855 137.136 26.6329 137.013 26.7565C136.765 26.8802 136.642 27.0039 136.394 27.1276C136.147 27.1276 135.9 27.1276 135.652 27.1276V25.8909C135.776 25.8909 135.9 25.8909 136.023 25.8909C136.147 25.8909 136.271 25.7672 136.394 25.6435C136.518 25.5199 136.642 25.2725 136.765 25.0252C136.889 24.7779 137.013 24.2832 137.013 23.7885C137.136 23.1702 137.136 22.5518 137.26 21.8098L137.384 20.4495H141.712V27.2512H140.228V27.1276Z" fill="white"></path> <path d="M142.701 23.7884C142.701 22.799 143.072 21.9334 143.691 21.315C144.309 20.6967 145.175 20.3257 146.288 20.3257C147.277 20.3257 148.143 20.6967 148.885 21.315C149.503 21.9334 149.874 22.799 149.874 23.9121C149.874 24.9014 149.503 25.7671 148.885 26.3854C148.266 27.0038 147.401 27.3748 146.288 27.3748C145.298 27.3748 144.433 27.0038 143.691 26.3854C143.072 25.6434 142.701 24.7777 142.701 23.7884ZM144.062 23.7884C144.062 24.5304 144.309 25.0251 144.68 25.5198C145.175 26.0144 145.669 26.2618 146.288 26.2618C147.03 26.2618 147.524 26.0144 147.895 25.5198C148.266 25.0251 148.514 24.5304 148.514 23.7884C148.514 23.0464 148.266 22.5517 147.895 22.057C147.401 21.5624 146.906 21.4387 146.288 21.4387C145.669 21.4387 145.051 21.686 144.68 22.057C144.185 22.428 144.062 23.0464 144.062 23.7884Z" fill="white"></path> <path d="M151.236 27.1274V20.3257H155.07V21.4387H152.473V27.1274H151.236Z" fill="white"></path> <path d="M157.171 27.1274H156.182V20.3257H157.418V25.1487L161.005 20.3257H162.118V27.1274H160.881V22.3044L157.171 27.1274Z" fill="white"></path> <path d="M168.425 20.3262V27.1279H167.189V24.2836C166.818 24.6546 166.199 24.7782 165.581 24.7782C164.963 24.7782 164.468 24.6546 164.097 24.2836C163.726 23.9126 163.479 23.4179 163.479 22.6759V20.3262H164.715V22.3049C164.715 23.2942 165.086 23.6652 165.952 23.6652C166.447 23.6652 166.818 23.5416 167.312 23.1706V20.2025H168.425V20.3262Z" fill="white"></path> <path d="M170.402 27.1274V20.3257H174.36V21.4387H171.639V23.1701H174.112V24.2831H171.639V26.0144H174.483V27.1274H170.402V27.1274Z" fill="white"></path> <path d="M180.669 25.6439L181.163 26.5096C180.916 26.7569 180.669 26.8806 180.298 27.0043C179.927 27.1279 179.432 27.2516 179.061 27.2516C178.072 27.2516 177.206 26.8806 176.464 26.2623C175.846 25.6439 175.475 24.7782 175.475 23.6652C175.475 22.6759 175.722 21.8102 176.34 21.1919C176.959 20.5735 177.824 20.2025 178.937 20.2025C179.803 20.2025 180.545 20.4499 181.04 20.9445L180.545 21.8102C180.05 21.5629 179.556 21.3155 179.061 21.3155C178.443 21.3155 177.948 21.5629 177.453 21.9339C177.082 22.4285 176.835 22.9232 176.835 23.6652C176.835 24.4072 177.082 24.9019 177.453 25.3966C177.948 25.8913 178.443 26.0149 179.185 26.0149C179.679 26.1386 180.174 26.0149 180.669 25.6439Z" fill="white"></path> <path d="M182.275 27.1274V20.3257H183.512V23.5411L186.233 20.3257H187.717L184.872 23.5411L187.84 27.1274H186.356L183.512 23.6647V27.1274H182.275Z" fill="white"></path> <path d="M189.942 27.1274H188.953V20.3257H190.19V25.1487L193.776 20.3257H194.889V27.1274H193.653V22.3044L189.942 27.1274Z" fill="white"></path> <path d="M197.611 27.1277H196.498V20.326H197.735V25.149L201.321 20.326H202.434V27.1277H201.197V22.3046L197.611 27.1277ZM197.611 18.7183H198.724C198.848 19.0893 199.095 19.3366 199.59 19.3366C200.084 19.3366 200.332 19.0893 200.332 18.7183H201.445C201.445 19.0893 201.197 19.4603 200.95 19.7076C200.579 19.9549 200.084 20.0786 199.59 20.0786C198.971 20.0786 198.6 19.9549 198.229 19.7076C197.858 19.4603 197.735 19.0893 197.611 18.7183Z" fill="white"></path> <path d="M115.248 35.4136C115.248 34.4243 115.619 33.5586 116.237 32.9403C116.856 32.3219 117.721 31.9509 118.834 31.9509C119.824 31.9509 120.689 32.3219 121.431 32.9403C122.05 33.5586 122.421 34.4243 122.421 35.5373C122.421 36.5267 122.05 37.3923 121.431 38.0107C120.813 38.629 119.947 39 118.834 39C117.845 39 116.979 38.629 116.237 38.0107C115.495 37.2687 115.248 36.5267 115.248 35.4136ZM116.485 35.4136C116.485 36.1556 116.732 36.6503 117.103 37.145C117.598 37.6397 118.092 37.887 118.711 37.887C119.453 37.887 119.947 37.6397 120.318 37.145C120.689 36.6503 120.937 36.1556 120.937 35.4136C120.937 34.6716 120.689 34.177 120.318 33.6823C119.824 33.1876 119.329 33.0639 118.711 33.0639C118.092 33.0639 117.474 33.3113 117.103 33.6823C116.732 34.177 116.485 34.6716 116.485 35.4136Z" fill="white"></path> <path d="M127.985 38.876V33.1872H124.893V38.876H123.656V32.0742H129.098V38.876H127.985Z" fill="white"></path> <path d="M130.953 38.876V32.0742H134.911V33.1872H132.19V34.9186H134.663V36.0316H132.19V37.763H135.034V38.876H130.953V38.876Z" fill="white"></path> <path d="M137.756 38.876H136.52V32.0742C136.643 32.0742 136.891 32.0742 137.509 32.0742C138.004 32.0742 138.375 32.0742 138.498 32.0742C138.993 32.0742 139.364 32.0742 139.735 32.1979C140.106 32.3216 140.353 32.4452 140.601 32.6926C140.848 32.9399 140.972 33.1872 140.972 33.4346C141.095 33.6819 141.095 33.9292 141.095 34.3003C141.095 34.9186 140.848 35.4133 140.477 35.9079C139.982 36.2789 139.488 36.5263 138.622 36.5263C138.251 36.5263 137.88 36.5263 137.756 36.5263V38.876V38.876ZM138.622 33.1872C138.498 33.1872 138.251 33.1872 137.756 33.1872V35.2896C138.127 35.2896 138.375 35.2896 138.622 35.2896C138.993 35.2896 139.364 35.1659 139.488 35.0423C139.735 34.9186 139.859 34.5476 139.859 34.1766C139.859 33.4346 139.488 33.1872 138.622 33.1872Z" fill="white"></path> <path d="M141.096 38.876L143.94 32.0742H144.929L147.774 38.876H146.537L145.795 37.1446H142.827L142.085 38.876H141.096ZM144.435 33.5582L143.445 36.0316H145.424L144.435 33.5582Z" fill="white"></path> <path d="M147.402 33.1872V32.0742H152.967V33.1872H150.741V38.876H149.505V33.1872H147.402Z" fill="white"></path> <path d="M153.338 35.4136C153.338 34.4243 153.709 33.5586 154.327 32.9403C154.946 32.3219 155.811 31.9509 156.924 31.9509C157.914 31.9509 158.779 32.3219 159.521 32.9403C160.14 33.5586 160.511 34.4243 160.511 35.5373C160.511 36.5267 160.14 37.3923 159.521 38.0107C158.903 38.629 158.037 39 156.924 39C155.935 39 155.069 38.629 154.327 38.0107C153.585 37.2687 153.338 36.5267 153.338 35.4136ZM154.575 35.4136C154.575 36.1556 154.822 36.6503 155.193 37.145C155.688 37.6397 156.182 37.887 156.801 37.887C157.543 37.887 158.037 37.6397 158.408 37.145C158.779 36.6503 159.027 36.1556 159.027 35.4136C159.027 34.6716 158.779 34.177 158.408 33.6823C157.914 33.1876 157.419 33.0639 156.801 33.0639C156.182 33.0639 155.564 33.3113 155.193 33.6823C154.822 34.177 154.575 34.6716 154.575 35.4136Z" fill="white"></path> <path d="M162.983 38.876H161.746V32.0742C161.87 32.0742 162.117 32.0742 162.735 32.0742C163.23 32.0742 163.601 32.0742 163.725 32.0742C164.219 32.0742 164.59 32.0742 164.961 32.1979C165.332 32.3216 165.58 32.4452 165.827 32.6926C166.074 32.9399 166.198 33.1872 166.198 33.4346C166.322 33.6819 166.322 33.9292 166.322 34.3003C166.322 34.9186 166.074 35.4133 165.703 35.9079C165.209 36.2789 164.714 36.5263 163.848 36.5263C163.477 36.5263 163.106 36.5263 162.983 36.5263V38.876V38.876ZM163.848 33.1872C163.725 33.1872 163.477 33.1872 162.983 33.1872V35.2896C163.354 35.2896 163.601 35.2896 163.848 35.2896C164.219 35.2896 164.59 35.1659 164.714 35.0423C164.961 34.9186 165.085 34.5476 165.085 34.1766C165.085 33.4346 164.59 33.1872 163.848 33.1872Z" fill="white"></path> </svg> 